<?xml version="1.0" standalone="no"?>
<!DOCTYPE svg PUBLIC "-//W3C//DTD SVG 20010904//EN"
 "http://www.w3.org/TR/2001/REC-SVG-20010904/DTD/svg10.dtd">
<svg version="1.0" xmlns="http://www.w3.org/2000/svg"
 width="347.000000pt" height="347.000000pt" viewBox="0 0 347.000000 347.000000"
 preserveAspectRatio="xMidYMid meet">
<metadata>
Created by potrace 1.14, written by Peter Selinger 2001-2017
</metadata>
<g transform="translate(0.000000,347.000000) scale(0.100000,-0.100000)"
fill="#000000" stroke="none">
<path d="M1027 3252 c-13 -14 -17 -39 -17 -104 l0 -86 -88 -4 c-72 -3 -100 -9
-148 -33 -75 -37 -142 -104 -180 -180 l-29 -60 0 -1115 0 -1115 29 -53 c56
-101 158 -172 277 -192 44 -7 321 -10 869 -8 l805 3 60 29 c73 36 152 114 185
181 l25 50 3 1085 c2 1208 6 1144 -66 1249 -46 68 -137 136 -209 157 -33 10
-80 14 -123 12 l-70 -3 0 86 c0 53 -5 90 -12 97 -7 7 -42 12 -88 12 -46 0 -81
-5 -88 -12 -7 -7 -12 -44 -12 -97 l0 -86 -90 0 -90 0 0 86 c0 53 -5 90 -12 97
-16 16 -160 16 -176 0 -7 -7 -12 -44 -12 -98 l0 -85 -78 0 -77 0 -3 85 c-4
112 -11 120 -112 120 -101 0 -108 -8 -112 -120 l-3 -85 -75 0 -75 0 -3 85 c-4
112 -11 120 -112 120 -62 0 -80 -4 -93 -18z m1034 -1032 l359 0 0 -80 0 -80
-367 -2 c-203 -2 -533 -2 -735 0 l-368 2 0 80 0 80 363 2 c199 2 368 2 375 1
8 -2 175 -3 373 -3z m364 -455 l0 -80 -380 -5 c-209 -3 -543 -4 -742 -2 l-363
2 0 85 0 85 358 2 c196 2 530 1 742 -2 l385 -5 0 -80z m-364 -295 l359 0 0
-80 0 -80 -367 -2 c-203 -2 -533 -2 -735 0 l-368 2 0 80 0 80 363 2 c199 2
368 2 375 1 8 -2 175 -3 373 -3z m-13 -375 c9 -3 12 -26 10 -82 l-3 -78 -185
-5 c-102 -3 -351 -3 -555 0 l-370 5 -3 82 -3 83 358 2 c393 3 731 0 751 -7z
m-373 -450 l0 -90 -365 0 -365 0 -3 79 c-2 44 -1 85 2 93 5 11 71 13 368 11
l363 -3 0 -90z"/>
</g>
</svg>
